#!OML:ASF F:\VICON\USERDATA\INSTALL\Justin_Nancy\Justin_Nancy.ASF
:FULLY-SPECIFIED
:DEGREES
175
root -3.62404 16.9837 12.1531 -4.73115 -40.1875 12.2565
lowerback 7.06657 -1.16957 -9.12089
upperback 0.0476311 -2.29223 0.491333
thorax -3.54866 -0.979704 5.87034
lowerneck -16.9239 -3.68995 -10.4068
upperneck 21.4637 -3.84792 6.05727
head 9.94699 -1.97779 3.33911
rclavicle 4.02539e-014 -4.77083e-015
rhumerus -45.1398 -18.5033 -67.9947
rradius 26.4927
rwrist 10.5923
rhand -14.6268 8.07891
rfingers 7.12502
rthumb 11.5246 -21.5843
lclavicle 4.02539e-014 -4.77083e-015
lhumerus -19.3213 4.94181 83.5165
lradius 36.8487
lwrist -3.02326
lhand -18.2628 25.8165
lfingers 7.12502
lthumb 8.01673 55.6445
rfemur -34.4048 1.40848 10.9394
rtibia 15.309
rfoot -10.712 -18.3605
rtoes 9.31622
lfemur 9.31923 -1.14163 -32.1515
ltibia 14.488
lfoot -17.9049 -7.48061
ltoes 5.7511
176
root -3.78967 16.9637 12.3095 -4.3821 -39.4906 12.0379
lowerback 7.08583 -1.33988 -9.15341
upperback -0.0308479 -2.52421 0.558936
thorax -3.59892 -1.08831 5.98283
lowerneck -16.7015 -3.78491 -10.4215
upperneck 21.3349 -3.98829 6.02089
head 9.87258 -2.04948 3.30815
rclavicle 1.18277e-014 3.33958e-014
rhumerus -45.4876 -19.3722 -67.1397
rradius 25.9906
rwrist 11.4498
rhand -14.5319 8.19543
rfingers 7.12502
rthumb 11.6162 -21.4626
lclavicle 1.18277e-014 3.33958e-014
lhumerus -19.2085 4.85323 83.5936
lradius 37.7214
lwrist -3.21112
lhand -18.628 25.4007
lfingers 7.12502
lthumb 7.66417 55.2418
rfemur -33.9863 2.37144 10.2383
rtibia 13.2655
rfoot -10.575 -18.6506
rtoes 8.18426
lfemur 10.3645 -0.880866 -31.5798
ltibia 13.7219
lfoot -17.5807 -8.94644
ltoes 5.71039
177
root -3.95907 16.9268 12.5062 -4.23622 -39.3851 11.8338
lowerback 6.9734 -1.37785 -9.02241
upperback -0.0973262 -2.54933 0.701726
thorax -3.60005 -1.09936 6.05908
lowerneck -16.6017 -3.83932 -10.6762
upperneck 21.4264 -4.01151 6.02154
head 9.8956 -2.08466 3.34944
rclavicle -2.11706e-014 4.77083e-015
rhumerus -45.8289 -20.1539 -65.9688
rradius 25.342
rwrist 12.3575
rhand -14.1236 8.74897
rfingers 7.12502
rthumb 12.0099 -20.8865
lclavicle -2.11706e-014 4.77083e-015
lhumerus -19.2523 4.97018 83.798
lradius 38.4462
lwrist -2.93074
lhand -18.3893 25.3523
lfingers 7.12502
lthumb 7.89465 55.1849
rfemur -33.7643 2.09988 10.5627
rtibia 12.239
rfoot -9.07085 -17.3274
rtoes -0.553803
lfemur 11.6097 -1.29645 -31.4521
ltibia 13.1121
lfoot -17.1737 -9.0867
ltoes 5.53688
178
root -4.12502 16.8963 12.6742 -4.25397 -39.0661 11.8578
lowerback 7.30029 -1.48007 -9.24905
upperback -0.238703 -2.74212 0.757962
thorax -3.88828 -1.17024 6.28208
lowerneck -16.7705 -3.8096 -10.5107
upperneck 21.7606 -3.94973 5.77298
head 10.0321 -2.07456 3.24521
rclavicle 7.35503e-015 -2.62396e-014
rhumerus -46.0816 -20.7465 -65.2949
rradius 24.8778
rwrist 12.8291
rhand -13.8695 8.85476
rfingers 7.12502
rthumb 12.255 -20.7662
lclavicle 7.35503e-015 -2.62396e-014
lhumerus -19.3252 4.88461 83.8018
lradius 39.0363
lwrist -2.21629
lhand -18.9499 25.2097
lfingers 7.12502
lthumb 7.35356 55.0619
rfemur -33.4736 1.31287 10.9425
rtibia 11.7054
rfoot -8.08291 -15.2246
rtoes -6.04263
lfemur 12.2814 -1.4009 -31.2797
ltibia 13.4224
lfoot -17.1192 -9.83452
ltoes 2.42269
179
root -4.2994 16.875 12.8476 -4.37786 -39.0621 11.9195
lowerback 7.47914 -1.53037 -9.50561
upperback -0.375216 -2.85175 0.872808
thorax -4.09728 -1.20183 6.57185
lowerneck -16.5844 -3.71422 -10.5448
upperneck 21.9423 -3.7756 5.52226
head 10.043 -2.03334 3.1891
rclavicle -9.33294e-014 3.18055e-014
rhumerus -46.3629 -21.1923 -64.5707
rradius 24.515
rwrist 13.5209
rhand -13.8396 8.64087
rfingers 7.12502
rthumb 12.2838 -20.9783
lclavicle -9.33294e-014 3.18055e-014
lhumerus -19.535 5.22653 83.8777
lradius 39.3991
lwrist -1.84629
lhand -20.2101 24.2533
lfingers 7.12502
lthumb 6.13699 54.1444
rfemur -33.4531 0.687977 11.4514
rtibia 12.3154
rfoot -7.92769 -12.5995
rtoes -4.94418
lfemur 12.9729 -1.26917 -31.1138
ltibia 13.8345
lfoot -17.0687 -10.4099
ltoes -4.13577
180
root -4.47107 16.8636 13.0006 -3.804 -38.7486 11.062
lowerback 7.88446 -1.80665 -9.34824
upperback -0.732288 -3.23696 1.42451
thorax -4.61104 -1.34811 7.14125
lowerneck -16.1189 -3.49487 -10.9485
upperneck 22.1327 -3.34531 5.20074
head 9.98988 -1.91885 3.20599
rclavicle 7.65321e-015 -2.62396e-014
rhumerus -46.7928 -21.7484 -63.1342
rradius 24.0104
rwrist 14.9954
rhand -13.4462 9.6028
rfingers 7.12502
rthumb 12.663 -19.9933
lclavicle 7.65321e-015 -2.62396e-014
lhumerus -20.1726 6.17691 84.0735
lradius 39.8986
lwrist -1.62602
lhand -20.7962 23.9914
lfingers 7.12502
lthumb 5.57114 53.8982
rfemur -33.8021 0.337457 12.5487
rtibia 13.9098
rfoot -7.64426 -10.6741
rtoes -4.70837
lfemur 13.4356 -1.38187 -30.0375
ltibia 14.348
lfoot -16.6816 -11.4037
ltoes -8.95902
